<?xml version="1.0" encoding="UTF-8" standalone="no"?>
<!-- Generator: Adobe Illustrator 19.0.0, SVG Export Plug-In . SVG Version: 6.00 Build 0)  -->

<svg
   version="1.1"
   id="Layer_1"
   x="0px"
   y="0px"
   viewBox="0 0 339.254 339.254"
   style="enable-background:new 0 0 339.254 339.254;"
   xml:space="preserve"
   sodipodi:docname="gamepad-white.svg"
   inkscape:version="1.1.1 (1:1.1+202109281949+c3084ef5ed)"
   xmlns:inkscape="http://www.inkscape.org/namespaces/inkscape"
   xmlns:sodipodi="http://sodipodi.sourceforge.net/DTD/sodipodi-0.dtd"
   xmlns="http://www.w3.org/2000/svg"
   xmlns:svg="http://www.w3.org/2000/svg"><defs
   id="defs203"><linearGradient
     id="linearGradient20197"
     inkscape:swatch="solid"><stop
       style="stop-color:#ffffff;stop-opacity:1;"
       offset="0"
       id="stop20195" /></linearGradient></defs><sodipodi:namedview
   id="namedview201"
   pagecolor="#ffffff"
   bordercolor="#666666"
   borderopacity="1.0"
   inkscape:pageshadow="2"
   inkscape:pageopacity="0.0"
   inkscape:pagecheckerboard="0"
   showgrid="false"
   inkscape:zoom="2.063456"
   inkscape:cx="146.84103"
   inkscape:cy="188.27636"
   inkscape:window-width="1366"
   inkscape:window-height="704"
   inkscape:window-x="0"
   inkscape:window-y="27"
   inkscape:window-maximized="1"
   inkscape:current-layer="g164" />
<g
   id="g168"
   style="stroke:#16ffff;stroke-opacity:1;fill:#ffffff;fill-opacity:1">
	<g
   id="g166"
   style="stroke:#16ffff;stroke-opacity:1;fill:#ffffff;fill-opacity:1">
		<g
   id="g164"
   style="stroke:#16ffff;stroke-opacity:1;fill:#ffffff;fill-opacity:1">
			<path
   d="M336.623,209.04l-42.55-121.978c-3.813-10.949-14.169-18.306-25.772-18.306c-7.632,0-181.188,0-197.36,0     c-11.602,0-21.959,7.356-25.771,18.303L2.619,209.042c-10.47,30.044,11.738,61.456,43.662,61.456     c19.941,0,37.259-12.66,43.661-31.005l6.86-19.679c2.418-6.936,8.98-11.596,16.329-11.596h1.648     c4.178,8.634,12.9,14.22,22.742,14.22c9.839,0,18.558-5.588,22.733-14.22h18.735c4.177,8.634,12.895,14.22,22.732,14.22     c9.844,0,18.566-5.588,22.743-14.22h1.647c7.349,0,13.911,4.66,16.329,11.596l6.86,19.682     c6.473,18.544,24.019,31.003,43.661,31.003C324.452,270.497,347.215,239.425,336.623,209.04z M122.236,78.757h94.771v27.42     h-94.771V78.757z M137.521,212.437c-6.726,0-12.592-4.306-14.6-10.719c-0.458-1.458-0.69-2.992-0.69-4.561     c0-8.431,6.859-15.29,15.29-15.29c8.426,0,15.28,6.859,15.28,15.29C152.802,205.524,146.088,212.437,137.521,212.437z      M201.721,212.437c-8.506,0-15.28-6.847-15.28-15.28c0-8.431,6.854-15.29,15.28-15.29c8.431,0,15.29,6.859,15.29,15.29     C217.011,205.525,210.297,212.437,201.721,212.437z M292.961,260.497c-15.395,0-29.146-9.765-34.219-24.296l-6.86-19.68     c-3.72-10.671-13.653-17.93-24.893-18.29c0.609-14.367-10.915-26.364-25.268-26.364c-14.242,0-25.842,11.863-25.259,26.35H162.78     c0.598-14.38-10.931-26.35-25.258-26.35c-14.356,0-25.877,12-25.268,26.364c-11.24,0.36-21.173,7.619-24.894,18.29l-6.859,19.678     c-5.04,14.439-18.651,24.298-34.219,24.298c-25.038,0-42.42-24.633-34.219-48.163l42.55-121.982     c2.415-6.935,8.977-11.595,16.328-11.595h41.295v32.42c0,2.761,2.239,5,5,5h104.771c2.761,0,5-2.239,5-5v-32.42h41.295     c7.351,0,13.913,4.66,16.329,11.597l42.55,121.979C335.502,236.203,317.602,260.497,292.961,260.497z"
   id="path152"
   style="stroke:#ffffff;stroke-opacity:1;fill:none;fill-opacity:1" />
			<path
   d="m 256.463,136.448 c 7.366,0 13.359,-5.993 13.359,-13.359 0,-7.366 -5.993,-13.359 -13.359,-13.359 -7.366,0 -13.359,5.993 -13.359,13.359 0,7.366 5.993,13.359 13.359,13.359 z"
   id="path154"
   style="fill:none;fill-opacity:1;stroke:#ffffff;stroke-opacity:1"
   sodipodi:nodetypes="sssss" />
			<path
   d="m 256.463,155.153 c -7.366,0 -13.359,5.993 -13.359,13.359 0,7.366 5.993,13.359 13.359,13.359 7.366,0 13.359,-5.993 13.359,-13.359 10e-4,-7.366 -5.993,-13.359 -13.359,-13.359 z"
   id="path156"
   style="fill:none;fill-opacity:1;stroke:#ffffff;stroke-opacity:1"
   sodipodi:nodetypes="ssscs" />
			<path
   d="m 247.111,145.8 c 0,-7.366 -5.993,-13.359 -13.359,-13.359 -7.366,0 -13.359,5.993 -13.359,13.359 0,7.366 5.993,13.359 13.359,13.359 7.365,0.001 13.359,-5.992 13.359,-13.359 z"
   id="path158"
   style="fill:none;fill-opacity:1;stroke:#ffffff;stroke-opacity:1"
   sodipodi:nodetypes="ssscs" />
			<path
   d="m 279.176,132.441 c -7.366,0 -13.359,5.993 -13.359,13.359 0,7.366 5.993,13.359 13.359,13.359 7.366,0 13.359,-5.993 13.359,-13.359 -0.001,-7.366 -5.993,-13.359 -13.359,-13.359 z"
   id="path160"
   style="fill:none;fill-opacity:1;stroke:#ffffff;stroke-opacity:1"
   sodipodi:nodetypes="ssscs" />
			<path
   d="M 113.198,132.441 H 95.486 v -17.712 c 0,-2.761 -2.239,-5 -5,-5 H 73.767 c -2.761,0 -5,2.239 -5,5 v 17.712 H 51.055 c -2.761,0 -5,2.239 -5,5 v 16.719 c 0,2.761 2.239,5 5,5 h 17.712 v 17.712 c 0,2.761 2.239,5 5,5 h 16.719 c 2.761,0 5,-2.239 5,-5 V 159.16 h 17.712 c 2.761,0 5,-2.239 5,-5 v -16.719 c 0,-2.761 -2.239,-5 -5,-5 z"
   id="path162"
   style="fill:none;fill-opacity:1;stroke:#ffffff;stroke-opacity:1"
   sodipodi:nodetypes="scsssscsssscsssscssss" />
		</g>
	</g>
</g>
<g
   id="g170">
</g>
<g
   id="g172">
</g>
<g
   id="g174">
</g>
<g
   id="g176">
</g>
<g
   id="g178">
</g>
<g
   id="g180">
</g>
<g
   id="g182">
</g>
<g
   id="g184">
</g>
<g
   id="g186">
</g>
<g
   id="g188">
</g>
<g
   id="g190">
</g>
<g
   id="g192">
</g>
<g
   id="g194">
</g>
<g
   id="g196">
</g>
<g
   id="g198">
</g>
</svg>
